<svg width="162" height="170" viewBox="0 0 162 170" fill="none" xmlns="http://www.w3.org/2000/svg">
<path d="M88.3129 0.199295C93.9863 -0.40784 98.0543 0.483517 101.726 1.37898C123.181 6.61159 136.84 26.049 145.591 48.4151C154.35 70.8021 158.252 96.269 160.105 113.813C162.904 140.311 160.139 151.309 154.984 157.194C150.855 161.909 148.53 164.501 145.658 166.126C142.781 167.753 139.383 168.395 133.184 169.359C126.602 170.383 119.456 169.856 112.342 168.967C105.2 168.074 98.1282 166.825 91.5727 166.364C82.1709 165.704 76.3385 166.449 69.1215 166.991C61.8955 167.534 53.3393 167.866 38.5571 166.362C23.7409 164.856 13.3528 160.328 7.11371 153.516C0.861168 146.689 -1.1547 137.645 0.614685 127.281C2.37007 117 8.12999 92.3985 18.6479 67.7628C29.1545 43.1536 44.4628 18.3785 65.3832 7.91805C75.4171 2.9011 82.6491 0.805445 88.3129 0.199295ZM114.529 39.6768C107.698 36.9264 99.2498 37.1479 89.6567 41.4464C70.4991 50.0307 46.667 74.9121 21.5795 125.316C15.4161 137.7 24.6765 152.155 38.5004 150.666C120.343 141.846 141.67 85.055 129.529 55.502C126.494 48.1162 121.356 42.426 114.529 39.6768Z" fill="black"/>
</svg>